<svg width="160" height="41" fill="none" xmlns="http://www.w3.org/2000/svg"><path d="M58.9 15.5h-5.6v-2.6h14.3v2.6H62V30h-3.1V15.5Zm15.2 2c.5 0 .9.2 1.2.3v2.7c-.5-.2-1-.3-1.6-.3-1 0-1.8.3-2.3.9-.6.6-.8 1.4-.8 2.3V30h-3v-8.7c0-1.3 0-2.4-.2-3.4h2.8l.2 2.1c.4-.8.8-1.4 1.5-1.8a4 4 0 0 1 2.2-.6Zm14.2.4V30h-2.9v-2a4 4 0 0 1-1.6 1.6 5 5 0 0 1-2.3.6 5 5 0 0 1-4.7-3c-.5-.9-.7-2-.7-3.2 0-1.3.2-2.4.7-3.4.4-1 1-1.7 1.9-2.2.8-.6 1.7-.8 2.8-.8.8 0 1.6.2 2.3.5.7.4 1.2 1 1.6 1.6v-1.8h3Zm-6 10c1 0 1.7-.4 2.3-1 .5-.8.8-1.7.8-3s-.3-2.3-.8-3c-.6-.6-1.3-1-2.3-1-1 0-1.8.4-2.4 1.1-.5.7-.8 1.7-.8 3 0 1.2.3 2.2.8 2.8.6.7 1.4 1 2.4 1Zm15-13.2c-1.2 0-1.9.7-1.9 2.1v1h2.7v2.3h-2.7V30h-3v-9.9h-2.3V18h2.3v-1.2c0-1.4.4-2.5 1-3.3.8-.8 1.9-1.2 3.2-1.2.8 0 1.4.1 2 .3v2.4a5 5 0 0 0-1.2-.2ZM112 18V30h-3v-2a4 4 0 0 1-1.5 1.6 5 5 0 0 1-2.4.6 5 5 0 0 1-4.7-3c-.4-.9-.7-2-.7-3.2 0-1.3.3-2.4.7-3.4.5-1 1.1-1.7 2-2.2.7-.6 1.7-.8 2.7-.8.9 0 1.7.2 2.4.5.7.4 1.2 1 1.6 1.6v-1.8h2.9Zm-6 10c1 0 1.7-.4 2.2-1 .6-.8.9-1.7.9-3s-.3-2.3-.9-3c-.5-.6-1.3-1-2.3-1-1 0-1.8.4-2.3 1.1-.6.7-.8 1.7-.8 3 0 1.2.2 2.2.8 2.8.5.7 1.3 1 2.3 1Zm9.3-15.6h3V30h-3V12.3Zm18 5.6v11.7c0 1.9-.6 3.3-1.6 4.3s-2.6 1.5-4.6 1.5a10 10 0 0 1-5-1.2l.5-2.3c1.5.8 3 1.2 4.4 1.2 2.2 0 3.3-1.1 3.3-3.2v-2.4c-.4.6-1 1.1-1.6 1.6a5.4 5.4 0 0 1-5.2-.1 5.3 5.3 0 0 1-2-2.2c-.4-1-.6-2-.6-3.2a7 7 0 0 1 .6-3.1 5 5 0 0 1 4.8-3c.9 0 1.7.3 2.4.6.7.4 1.2 1 1.6 1.6v-1.8h3Zm-6.2 9.4c1 0 1.7-.3 2.3-1a4 4 0 0 0 .9-2.7 4 4 0 0 0-.9-2.7 3 3 0 0 0-2.3-1 3 3 0 0 0-2.4 1 4 4 0 0 0-.8 2.7c0 1.2.3 2 .8 2.7a3 3 0 0 0 2.4 1Zm21-9.4V30h-3v-2a4 4 0 0 1-1.6 1.6 5 5 0 0 1-2.3.6 5 5 0 0 1-4.7-3c-.5-.9-.7-2-.7-3.2 0-1.3.2-2.4.7-3.4.4-1 1-1.7 1.9-2.2.8-.6 1.7-.8 2.8-.8.9 0 1.7.2 2.3.5.7.4 1.3 1 1.6 1.6v-1.8h3Zm-6.1 10c1 0 1.8-.4 2.3-1 .6-.8.8-1.7.8-3s-.3-2.3-.8-3c-.5-.6-1.3-1-2.3-1-1 0-1.8.4-2.3 1.1-.6.7-.9 1.7-.9 3 0 1.2.3 2.2.9 2.8.5.7 1.3 1 2.3 1Zm15.9-10.3c.4 0 .8 0 1.2.2v2.7c-.6-.2-1-.3-1.6-.3-1 0-1.8.3-2.4.9-.5.6-.8 1.4-.8 2.3V30h-3v-8.7c0-1.3 0-2.4-.2-3.4h2.9l.2 2.1c.3-.8.8-1.4 1.4-1.8a4 4 0 0 1 2.3-.6Z" fill="#233348"/><circle cx="20.5" cy="20.5" r="20.5" fill="#458FF6"/><path d="M19.3 15.2h-6v-2.7h15.5v2.7h-6V31h-3.5V15.2Z" fill="#fff"/></svg>